<?xml version="1.0" encoding="UTF-8"?><svg id="Layer_1" xmlns="http://www.w3.org/2000/svg" viewBox="0 0 154.16 284.72"><path d="M88.08,179.05c-4.22,3.12-7.88,6.98-10.98,11.62-.13.19-.26.37-.38.56-.41.62-.81,1.26-1.2,1.89-2.67,4.34-5.01,8.97-7.02,13.9-2.3,5.65-4.64,10.92-7,15.8-2.35,4.89-4.95,8.94-7.81,12.18-2.85,3.24-6.3,4.85-10.36,4.85s-7.7-1.89-10.62-5.68c-.51-.68-.99-1.4-1.41-2.17-.32-.66-.61-1.32-.89-2.03-1.32-3.4-2-7.37-2.04-11.91.02-2.67.31-5.41.85-8.22.21-1.15.48-2.32.78-3.48,1.1-4.23,2.72-8.17,4.86-11.86,2.14-3.67,4.76-6.88,7.89-9.62,3.13-2.75,6.72-4.55,10.78-5.43v-.66h-23.37v.81c.45.45.88.88,1.31,1.32.78.98,1.16,2.3,1.16,3.95s-.33,3.53-.99,5.68c-.66,2.14-1.37,4.55-2.14,7.24-.17.57-.32,1.15-.48,1.75-.21.65-.41,1.3-.59,1.96-1.34,4.81-2.03,9.52-2.05,14.12-.01.12-.01.23-.01.36v.99c0,3.58.41,7.1,1.22,10.54.08.36.17.7.26,1.06.24.98.51,1.94.82,2.88,1.54,4.72,3.67,8.75,6.42,12.1,2.74,3.34,5.94,5.98,9.63,7.89,3.67,1.93,7.59,2.88,11.77,2.88,6.47,0,11.9-1.63,16.29-4.85,4.22-3.12,7.88-6.99,10.98-11.62.13-.19.26-.37.38-.56.41-.62.81-1.27,1.2-1.9,2.68-4.34,5.02-8.97,7.02-13.89,2.3-5.65,4.63-10.92,6.99-15.8,2.36-4.89,4.96-8.95,7.83-12.18,2.85-3.24,6.3-4.86,10.36-4.86s7.7,1.9,10.61,5.69c.53.69,1.01,1.42,1.44,2.2.02.02.03.04.04.07.29.61.57,1.26.82,1.93,1.34,3.4,2.01,7.37,2.05,11.9-.02,2.69-.31,5.45-.87,8.28-.21,1.14-.47,2.27-.77,3.43-1.09,4.22-2.72,8.17-4.85,11.84-2.14,3.67-4.76,6.89-7.89,9.63s-6.72,4.55-10.79,5.43v.66h23.38v-.82c-.45-.43-.88-.88-1.32-1.31-.77-.99-1.15-2.3-1.15-3.95s.32-3.54.99-5.68c.66-2.14,1.37-4.55,2.14-7.24.17-.58.33-1.18.49-1.79.01-.02.02-.06.03-.09.19-.6.38-1.21.55-1.83,1.34-4.82,2.03-9.52,2.05-14.13,0-.22,0-.46.01-.69v-.66c0-3.57-.41-7.09-1.22-10.54-.08-.36-.17-.7-.26-1.06-.24-.98-.51-1.94-.82-2.88-1.54-4.71-3.67-8.74-6.42-12.09-2.74-3.35-5.94-5.98-9.63-7.9-3.67-1.91-7.59-2.87-11.77-2.87-6.47,0-11.9,1.61-16.29,4.85ZM91.46,197.23c-2.58,4.83-5,10.06-7.25,15.72-2.25,5.64-4.74,10.89-7.48,15.72-2.75,4.82-5.92,8.86-9.55,12.09-2.55,2.28-5.52,3.75-8.95,4.43.77-.52,1.5-1.12,2.2-1.79,3.41-3.24,6.4-7.27,8.97-12.1,2.58-4.82,5-10.06,7.24-15.71,2.25-5.65,4.75-10.89,7.49-15.72,2.74-4.83,5.92-8.86,9.54-12.1,2.56-2.27,5.54-3.75,8.97-4.42-.77.51-1.51,1.12-2.22,1.79-3.41,3.23-6.4,7.26-8.97,12.09Z" fill="#ebe7e0"/><path d="M125.45,109.81c-4.32-5.85-9.68-10.93-16.12-15.23-.26-.19-.51-.36-.77-.53-.86-.57-1.75-1.13-2.63-1.67-6.02-3.71-12.45-6.95-19.29-9.74-7.84-3.2-15.15-6.44-21.91-9.71-6.78-3.26-12.4-6.87-16.89-10.84-4.49-3.95-6.73-8.74-6.73-14.38s2.63-10.69,7.88-14.73c.94-.71,1.95-1.37,3.01-1.96.91-.45,1.84-.85,2.81-1.24,4.71-1.84,10.22-2.78,16.52-2.83,3.71.03,7.51.43,11.4,1.17,1.59.29,3.21.66,4.83,1.08,5.87,1.53,11.33,3.77,16.45,6.75,5.1,2.96,9.54,6.61,13.34,10.95,3.81,4.34,6.32,9.33,7.54,14.95h.91V29.45s-1.13,0-1.13,0c-.62.62-1.22,1.22-1.84,1.82-1.36,1.08-3.2,1.61-5.48,1.61s-4.9-.46-7.88-1.37c-2.96-.91-6.32-1.9-10.04-2.96-.79-.23-1.59-.45-2.42-.66-.9-.29-1.81-.57-2.72-.82-6.67-1.85-13.2-2.81-19.58-2.84-.17-.02-.32-.02-.49-.02h-1.37c-4.97,0-9.85.57-14.62,1.7-.49.11-.97.23-1.47.36-1.36.34-2.69.71-4,1.14-6.55,2.13-12.14,5.1-16.79,8.91-4.63,3.8-8.29,8.25-10.95,13.36-2.67,5.1-4,10.53-4,16.32,0,8.97,2.25,16.51,6.73,22.59,4.32,5.85,9.7,10.93,16.12,15.23.26.19.51.36.77.53.86.57,1.76,1.13,2.64,1.67,6.02,3.72,12.45,6.96,19.27,9.74,7.85,3.2,15.15,6.42,21.91,9.7,6.78,3.27,12.42,6.89,16.89,10.86,4.49,3.95,6.75,8.74,6.75,14.38s-2.64,10.69-7.89,14.72c-.96.74-1.98,1.41-3.06,1.99-.03.03-.06.05-.09.06-.85.4-1.75.79-2.67,1.14-4.71,1.85-10.22,2.8-16.51,2.84-3.74-.03-7.57-.43-11.49-1.2-1.58-.29-3.15-.65-4.76-1.07-5.85-1.51-11.34-3.77-16.43-6.73-5.1-2.96-9.56-6.61-13.36-10.95-3.8-4.34-6.32-9.33-7.54-14.96h-.91v32.43h1.14c.6-.62,1.22-1.22,1.82-1.84,1.37-1.07,3.2-1.59,5.48-1.59,2.29,0,4.91.45,7.88,1.37,2.97.91,6.32,1.9,10.04,2.97.8.23,1.64.46,2.49.68.03.02.08.03.12.05.83.26,1.68.53,2.53.76,6.69,1.85,13.2,2.81,19.6,2.84.31,0,.63,0,.96.02h.91c4.96,0,9.84-.57,14.62-1.7.49-.11.97-.23,1.47-.36,1.36-.34,2.69-.71,4-1.14,6.53-2.13,12.12-5.1,16.77-8.91,4.65-3.8,8.29-8.25,10.96-13.36,2.66-5.1,3.98-10.53,3.98-16.32,0-8.97-2.24-16.51-6.73-22.59ZM100.23,114.49c-6.7-3.58-13.96-6.93-21.81-10.05-7.83-3.12-15.1-6.58-21.81-10.38-6.69-3.81-12.29-8.22-16.77-13.25-3.17-3.54-5.2-7.66-6.15-12.42.73,1.07,1.56,2.08,2.49,3.06,4.49,4.73,10.08,8.88,16.79,12.45,6.69,3.58,13.96,6.93,21.79,10.04,7.85,3.12,15.1,6.59,21.81,10.39,6.7,3.8,12.29,8.22,16.79,13.23,3.15,3.55,5.2,7.69,6.13,12.45-.71-1.07-1.56-2.1-2.49-3.07-4.48-4.73-10.07-8.88-16.77-12.45Z" fill="#ebe7e0"/></svg>
