<?xml version="1.0" encoding="UTF-8"?><svg id="Layer_1" xmlns="http://www.w3.org/2000/svg" viewBox="0 0 512 512"><g id="F384_Arrow_right_up"><path d="M446.26,69h0q0-.65,0,0,0-.65,0,0v-.65h0v-.64h0v-.65h0v-.65h0v-.65h0v-.65h0v-.65h-5.82l-212.88,12.29c-1.94,0-3.88,1.29-5.83,2.59-1.29,1.94-1.94,3.88-1.94,5.83,0,3.88,3.88,7.76,7.77,7.76h.65l188.94-14.23L60.62,435.23c-1.29,1.29-2.59,3.88-2.59,5.82s.65,3.88,2.59,5.83c1.29,1.29,3.23,2.59,5.82,2.59s3.88-.65,5.83-2.59L428.14,89.7l-14.23,188.29c-.65,4.53,3.23,8.41,7.77,8.41h.65c3.88,0,7.76-3.23,7.76-7.77l16.18-209.64h0Z"/></g></svg>