<?xml version="1.0" encoding="UTF-8"?><svg id="Layer_1" xmlns="http://www.w3.org/2000/svg" viewBox="0 0 512 512"><path d="M256,159.86c-39.52,0-71.67-32.15-71.67-71.67S216.48,16.53,256,16.53s71.67,32.15,71.67,71.67-32.15,71.67-71.67,71.67ZM256,27.56c-33.44,0-60.64,27.2-60.64,60.64s27.2,60.64,60.64,60.64,60.64-27.2,60.64-60.64-27.2-60.64-60.64-60.64Z"/><path d="M256,161.36c-40.34,0-73.17-32.82-73.17-73.17S215.66,15.03,256,15.03s73.17,32.82,73.17,73.17-32.82,73.17-73.17,73.17ZM256,18.03c-38.69,0-70.17,31.48-70.17,70.17s31.48,70.17,70.17,70.17,70.17-31.48,70.17-70.17-31.48-70.17-70.17-70.17ZM256,150.34c-34.26,0-62.14-27.88-62.14-62.14s27.88-62.14,62.14-62.14,62.14,27.88,62.14,62.14-27.88,62.14-62.14,62.14ZM256,29.06c-32.61,0-59.14,26.53-59.14,59.14s26.53,59.14,59.14,59.14,59.14-26.53,59.14-59.14-26.53-59.14-59.14-59.14Z"/><path d="M8.5,458.9c-2.04,0-4-1.14-4.96-3.09-1.34-2.74-.21-6.04,2.53-7.37.3-.15,18.15-8.99,39.44-25.77,19.55-15.41,46.12-40.87,61.61-74.67,8-17.46,11.47-37.09,15.14-57.88,4.53-25.67,9.22-52.21,22.96-77.07l.16-.27c15.21-24.16,28.13-40,67.64-40h65.14c3.04,0,5.51,2.47,5.51,5.51s-2.47,5.51-5.51,5.51h-65.14c-34.54,0-44.67,13.19-58.22,34.71-12.79,23.21-17.31,48.78-21.68,73.51-3.8,21.51-7.38,41.82-15.98,60.56-16.46,35.9-44.45,62.73-65.04,78.91-22.24,17.49-40.43,26.46-41.19,26.83-.78.38-1.61.56-2.42.56Z"/><path d="M8.5,460.4c-2.7,0-5.12-1.51-6.3-3.93-1.7-3.47-.26-7.68,3.22-9.38.18-.09,17.97-8.9,39.17-25.6,19.42-15.31,45.81-40.59,61.18-74.12,7.92-17.28,11.37-36.83,15.03-57.52,4.55-25.79,9.26-52.46,23.12-77.53l.18-.31c15.5-24.62,28.65-40.74,68.93-40.74h65.14c3.87,0,7.01,3.15,7.01,7.01s-3.15,7.01-7.01,7.01h-65.14c-33.82,0-43.67,12.92-56.95,34.01-12.63,22.91-17.12,48.36-21.47,72.97-3.82,21.61-7.42,42.02-16.09,60.93-16.58,36.17-44.76,63.18-65.47,79.47-22.39,17.6-40.69,26.63-41.46,27-.97.47-2,.71-3.08.71ZM213.02,174.27c-38.74,0-51.43,15.56-66.37,39.3l-.14.23c-13.6,24.6-18.26,51.01-22.77,76.56-3.69,20.89-7.17,40.62-15.25,58.25-15.62,34.07-42.36,59.71-62.05,75.22-21.44,16.89-39.52,25.85-39.7,25.93-1.99.97-2.82,3.38-1.84,5.37.68,1.39,2.06,2.25,3.61,2.25.61,0,1.2-.14,1.76-.41.76-.37,18.79-9.26,40.92-26.67,20.46-16.09,48.27-42.74,64.6-78.36,8.51-18.57,12.08-38.79,15.86-60.19,4.39-24.86,8.93-50.55,21.84-73.98,13.87-22.03,24.14-35.49,59.53-35.49h65.14c2.21,0,4.01-1.8,4.01-4.01s-1.8-4.01-4.01-4.01h-65.14Z"/><path d="M503.5,458.9c-.81,0-1.64-.18-2.42-.56-.76-.37-18.95-9.34-41.19-26.83-20.59-16.19-48.58-43.02-65.04-78.91-8.59-18.74-12.18-39.06-15.98-60.56-4.37-24.73-8.88-50.3-21.68-73.51-13.55-21.52-23.68-34.71-58.22-34.71h-65.14c-3.04,0-5.51-2.47-5.51-5.51s2.47-5.51,5.51-5.51h65.14c39.51,0,52.43,15.84,67.64,40l.16.27c13.74,24.85,18.43,51.4,22.96,77.07,3.67,20.79,7.14,40.43,15.14,57.88,29.8,65.01,100.34,100.09,101.05,100.44,2.74,1.34,3.87,4.64,2.53,7.37-.96,1.96-2.92,3.09-4.96,3.09Z"/><path d="M503.5,460.4c-1.07,0-2.11-.24-3.08-.71-.77-.38-19.05-9.38-41.46-27-20.72-16.29-48.89-43.3-65.47-79.47-8.67-18.91-12.27-39.31-16.09-60.91-4.35-24.63-8.84-50.07-21.51-73.06-13.24-21.01-23.09-33.94-56.91-33.94h-65.14c-3.87,0-7.01-3.15-7.01-7.01s3.15-7.01,7.01-7.01h65.14c40.28,0,53.43,16.11,68.91,40.7l.18.3c13.88,25.11,18.59,51.78,23.15,77.57,3.65,20.69,7.1,40.23,15.03,57.52,29.58,64.53,99.64,99.37,100.35,99.71,3.47,1.7,4.92,5.91,3.22,9.38-1.19,2.43-3.6,3.93-6.3,3.93ZM233.83,174.27c-2.21,0-4.01,1.8-4.01,4.01s1.8,4.01,4.01,4.01h65.14c35.39,0,45.66,13.46,59.49,35.41,12.96,23.5,17.5,49.2,21.88,74.05,3.78,21.42,7.35,41.64,15.86,60.2,16.33,35.62,44.14,62.27,64.6,78.36,22.16,17.42,40.17,26.3,40.92,26.67.56.27,1.15.41,1.76.41,1.55,0,2.93-.86,3.61-2.25.47-.96.54-2.05.19-3.07s-1.07-1.83-2.03-2.3c-.71-.35-71.73-35.66-101.75-101.16-8.08-17.64-11.57-37.36-15.25-58.25-4.51-25.55-9.17-51.96-22.79-76.6l-.14-.23c-14.92-23.7-27.61-39.26-66.34-39.26h-65.14Z"/><path d="M92.6,475.43c-26.55,0-36.97-9.49-41.02-17.53-5.2-10.32-2.16-22.16,2.88-28.8,12.83-16.91,54.34-22.18,95.75-26.12,7.78-.74,16.59-1.58,18.37-2.2,1.14-.41,2.5-.84,4.07-1.34,11.44-3.63,32.74-10.4,36.05-28.64,4.13-22.72-1.83-40.94-11.89-68.81-10.12-28.03-15.49-68.9-15.72-70.62-.39-3.02,1.74-5.78,4.76-6.18,3.02-.39,5.78,1.74,6.18,4.76.05.41,5.45,41.42,15.15,68.3,10.73,29.7,16.91,49.54,12.37,74.52-4.5,24.77-30.88,33.14-43.56,37.17-1.47.47-2.74.87-3.69,1.21-2.89,1.03-8.87,1.64-21.04,2.8-25.01,2.38-77.04,7.33-88.01,21.81-2.43,3.21-5.08,10.71-1.82,17.18,3.84,7.61,15.38,11.67,32.46,11.47,24.52-.31,59.39-5.89,93.1-11.29,49.6-7.94,92.43-14.8,107.94-6.85,2.71,1.39,3.78,4.71,2.39,7.42-1.39,2.71-4.71,3.78-7.42,2.39-12.3-6.31-59.51,1.25-101.17,7.92-34.11,5.46-69.37,11.11-94.71,11.43-.48,0-.95,0-1.42,0Z"/><path d="M92.6,476.93c-27.36,0-38.14-9.98-42.36-18.36-5.49-10.89-2.28-23.39,3.02-30.39,13.19-17.4,55.06-22.73,96.81-26.71,6.92-.66,16.41-1.56,18.02-2.12,1.17-.42,2.6-.87,4.11-1.35,11.14-3.54,31.88-10.12,35.03-27.47,4.06-22.34-1.85-40.4-11.82-68.03-10.18-28.19-15.57-69.21-15.79-70.94-.5-3.83,2.22-7.36,6.05-7.86,3.84-.5,7.36,2.22,7.86,6.05.05.41,5.41,41.2,15.08,67.98,10.81,29.94,17.04,49.94,12.43,75.3-4.66,25.66-31.63,34.22-44.58,38.33-1.38.44-2.69.85-3.64,1.19-3.06,1.1-9.11,1.71-21.4,2.88-22.86,2.18-76.38,7.27-86.96,21.22-2.22,2.92-4.63,9.74-1.68,15.59,3.56,7.06,14.63,10.85,31.1,10.64,24.42-.3,59.22-5.88,92.88-11.27,49.86-7.98,92.92-14.88,108.86-6.7,1.67.85,2.9,2.31,3.47,4.09s.42,3.68-.43,5.35c-.86,1.67-2.31,2.9-4.09,3.47-1.78.58-3.68.42-5.35-.43-11.86-6.08-60.86,1.76-100.24,8.07-34.17,5.47-69.49,11.13-94.94,11.45-.48,0-.96,0-1.43,0ZM186.56,226.65c-.17,0-.34.01-.52.03-2.19.28-3.75,2.3-3.46,4.5.22,1.72,5.57,42.42,15.64,70.31,10.15,28.1,16.15,46.49,11.95,69.58-3.48,19.13-25.33,26.07-37.07,29.8-1.48.47-2.89.92-4.02,1.32-1.82.64-8.91,1.35-18.73,2.28-41.09,3.91-82.24,9.1-94.7,25.53-4.76,6.28-7.65,17.48-2.74,27.22,3.85,7.62,13.85,16.71,39.68,16.71.46,0,.93,0,1.4,0,25.23-.31,60.44-5.95,94.49-11.41,41.89-6.71,89.35-14.31,102.09-7.78,1.97,1.01,4.39.23,5.4-1.74.49-.95.58-2.04.25-3.06-.33-1.02-1.03-1.85-1.99-2.34-15.07-7.73-57.68-.91-107,6.99-33.78,5.41-68.69,11-93.33,11.31-17.72.2-29.71-4.15-33.82-12.29-3.57-7.07-.69-15.26,1.97-18.76,11.37-15,63.84-19.99,89.06-22.39,11.72-1.12,17.97-1.74,20.68-2.71,1-.36,2.33-.78,3.74-1.23,12.4-3.94,38.2-12.13,42.54-36.01,4.48-24.62-1.66-44.28-12.3-73.75-9.78-27.09-15.18-68.2-15.23-68.61-.26-2.02-1.99-3.5-3.98-3.5Z"/><path d="M418.85,475.43c-.47,0-.94,0-1.42,0-29.03-.36-71.24-12.69-112.06-24.62-21.46-6.27-41.72-12.19-58.22-15.76-21.1-4.57-29.14-3.68-32.17-2.12-2.71,1.39-6.03.32-7.42-2.39-1.39-2.71-.32-6.03,2.39-7.42,13.79-7.07,46.42,1.9,98.51,17.11,38.24,11.17,81.58,23.83,109.11,24.18,17.08.2,28.62-3.86,32.46-11.47,3.26-6.46.61-13.97-1.82-17.18-10.98-14.47-63.01-19.43-88.01-21.81-12.17-1.16-18.15-1.76-21.04-2.8-.95-.34-2.22-.74-3.69-1.21-12.68-4.03-39.06-12.41-43.56-37.17-4.54-24.99,1.64-44.82,12.37-74.52,9.71-26.88,15.1-67.89,15.15-68.3.39-3.02,3.15-5.15,6.18-4.76,3.02.39,5.15,3.16,4.76,6.18-.22,1.73-5.6,42.6-15.72,70.62-10.06,27.86-16.02,46.09-11.89,68.81,3.32,18.24,24.61,25,36.05,28.64,1.57.5,2.93.93,4.07,1.34,1.77.62,10.59,1.46,18.37,2.2,41.42,3.94,82.93,9.21,95.75,26.12,5.04,6.64,8.09,18.49,2.88,28.8-4.06,8.04-14.48,17.53-41.02,17.53Z"/><path d="M418.85,476.93c-.47,0-.95,0-1.44,0-29.23-.36-71.53-12.72-112.44-24.67-21.48-6.28-41.71-12.18-58.13-15.74-21.76-4.71-28.86-3.44-31.16-2.25-3.44,1.76-7.68.4-9.44-3.04-.85-1.67-1.01-3.57-.44-5.35s1.81-3.24,3.48-4.09c14.3-7.33,47.17,1.69,99.61,17.01,38.15,11.14,81.38,23.78,108.7,24.12.41,0,.81,0,1.21,0,15.82,0,26.42-3.77,29.89-10.65,2.95-5.85.54-12.67-1.68-15.59-10.58-13.95-64.1-19.04-86.96-21.22-12.3-1.17-18.35-1.78-21.41-2.88-.96-.34-2.32-.78-3.64-1.19-12.96-4.12-39.92-12.68-44.58-38.33-4.61-25.36,1.62-45.37,12.43-75.3,9.59-26.56,15.02-67.57,15.08-67.98.5-3.84,4.02-6.55,7.86-6.05,1.86.24,3.51,1.19,4.65,2.67,1.14,1.48,1.64,3.32,1.4,5.18-.22,1.73-5.61,42.75-15.79,70.94-9.98,27.62-15.88,45.69-11.82,68.03,3.16,17.35,23.89,23.94,35.03,27.47,1.51.48,2.94.93,4.12,1.36,1.59.56,11.08,1.46,18,2.12,41.75,3.97,83.61,9.31,96.81,26.71,5.31,7,8.52,19.5,3.02,30.39-4.22,8.38-15,18.36-42.36,18.36ZM222.8,430.16c5.91,0,14.16,1.14,24.67,3.42,16.53,3.58,36.8,9.5,58.26,15.77,40.79,11.92,82.89,24.22,111.72,24.57.47,0,.94,0,1.4,0,25.83,0,35.84-9.09,39.68-16.71,4.91-9.74,2.03-20.94-2.74-27.22-12.46-16.43-53.62-21.62-94.7-25.53-9.82-.93-16.91-1.64-18.72-2.28-1.14-.41-2.54-.85-4.03-1.33-11.74-3.73-33.6-10.67-37.07-29.8-4.2-23.09,1.81-41.49,11.95-69.58,10.07-27.88,15.42-68.59,15.64-70.31.14-1.06-.15-2.12-.8-2.96-.65-.85-1.6-1.39-2.66-1.53-2.19-.29-4.21,1.27-4.5,3.46-.05.41-5.53,41.75-15.23,68.61-10.64,29.46-16.78,49.13-12.3,73.75,4.34,23.88,30.14,32.07,42.54,36.01,1.34.43,2.73.87,3.74,1.23,2.72.97,8.96,1.6,20.68,2.71,25.22,2.4,77.69,7.4,89.07,22.39,2.65,3.5,5.53,11.69,1.96,18.76-4.1,8.14-16.13,12.51-33.81,12.29-27.74-.34-71.18-13.04-109.51-24.24-51.73-15.11-84.11-24.03-97.4-17.22-.95.49-1.66,1.32-1.99,2.34-.33,1.02-.24,2.11.25,3.06,1.01,1.97,3.43,2.75,5.4,1.74,1.85-.95,4.69-1.42,8.5-1.42Z"/></svg>