<?xml version="1.0" encoding="UTF-8"?><svg id="Layer_1" xmlns="http://www.w3.org/2000/svg" viewBox="0 0 512 512"><path d="M197.69,429.65h53.54c-14.67-85.75-84.65-151.75-171.52-155.3,53.76,32.21,93.98,85.32,117.99,155.3Z"/><path d="M264.34,255.7c6.23-6.88,12.66-13.34,19.32-19.77-6.01-25.1-15.12-48.2-27.56-69.98h0c-.68-.9-1.33-2-1.78-3.1-22.45-38.45-55.31-71.76-98.64-100.87,27.11,46.43,45.33,89.1,58.44,147.97,18.19,13.74,35.09,29.08,50.21,45.75Z"/><path d="M272.77,429.65h53.54c-5.11-32.21-14.67-59.99-29.11-88.88-.45-.68-.9-1.55-1.1-2.45-4.23-10.21-31.11-51.76-38.67-58.22-1.33-1.1-2.23-2.23-2.88-3.78-15.99-18.67-33.99-35.54-53.99-50.43-1.78-.68-3.1-1.78-4.23-3.1-19.55-14.22-40.87-26.2-63.55-35.99,40.45,45.1,74.89,95.53,102.42,150.42,19.58,27.11,32.47,58.89,37.57,92.43Z"/><path d="M314.55,209.92c13.12-58.87,31.34-101.54,58.44-147.74-41.55,27.98-73.76,60.64-96.21,97.31,10.66,19.1,18.9,39.55,24.88,60.64,4.23-3.55,8.43-6.88,12.89-10.21Z"/><path d="M319.88,338.12c9.56,20.22,17.12,41.1,22.45,62.65,24.43-55.76,60.64-98.64,106.65-126.42-50.01,2-96.66,25.1-129.1,63.77Z"/><path d="M278.33,272.14c10.44,13.12,19.77,26.65,27.98,40.65,25.1-45.33,55.09-87.55,89.33-125.74-44.2,19.32-84.87,48.43-117.31,85.1Z"/></svg>