<?xml version="1.0" encoding="UTF-8"?><svg id="Layer_1" xmlns="http://www.w3.org/2000/svg" viewBox="0 0 512 512"><path d="M469.53,341.77c-13.51,1.14-27.28.5-40.54-2.33-6.27-1.34-10.28-2.52-16.01-4.74-5.74-2.23-11.3-4.9-16.62-7.99-10.19-5.92-18.52-12.64-25.7-20.36-7.52-8.09-13.94-17.19-19.06-26.98-.57-1.1-1.11-2.21-1.67-3.31-.08-.15-.14-.27-.2-.39-.01-.03-.03-.06-.04-.09-.25-.56-.5-1.12-.75-1.68-1.1-2.51-2.11-5.06-3.03-7.64-1.76-4.93-3.2-9.97-4.29-15.09-.27-1.29-.53-2.59-.75-3.9-.04-.25-.26-1.65-.38-2.37-.08-.74-.28-2.42-.32-2.82-.14-1.43-.25-2.86-.32-4.3-.12-2.27-.17-4.55-.14-6.82.02-1.27.06-2.53.13-3.79.03-.48.07-.97.09-1.45.29-2.37.6-4.73,1.06-7.07.21-1.07.43-2.14.68-3.2.12-.53.27-1.05.39-1.58.01-.05.02-.09.03-.13.02-.05.03-.09.05-.14.99-3.05,2.14-5.99,3.31-8.98.05-.12.09-.23.13-.32.29-.57.57-1.14.87-1.7.88-1.67,1.83-3.31,2.83-4.91.26-.42.53-.83.81-1.25,1.09-1.18,1.97-2.61,3.01-3.85.59-.7,1.22-1.61,1.91-2.35.18-.12.39-.28.56-.44.78-.72,1.54-1.46,2.33-2.17,1.05-.93,2.13-1.83,3.23-2.7.55-.43,1.11-.84,1.67-1.27.02-.02.04-.03.06-.05.04-.02.08-.04.12-.06,2.74-1.46,5.27-3.23,8.09-4.58.62-.3,1.24-.57,1.87-.86.15-.07.25-.12.33-.15.06-.02.11-.04.17-.06,1.29-.47,2.57-.93,3.88-1.34,2.94-.92,5.95-1.63,8.99-2.13,1.25-.21,2.52-.38,3.78-.51-.16.04,2.86-.13,3.32-.13,3.16-.05,6.32.11,9.46.5,6.54.79,11.43,2.15,17.15,4.53,5.89,2.45,11.41-2.48,14.55-7.03,2.98-4.32,6.8-13.08,2.72-17.96-20.51-24.48-51.27-36.03-82.81-35.29-34.06.8-65.21,13.9-90.94,36.07-14.18,12.22-26.4,26.54-36.87,42.02-10.58,15.65-18.02,33.18-25.42,50.48-1.64,3.82-3.27,7.65-4.95,11.45-.93,2.11-1.88,4.21-2.84,6.31-.21.46-.43.92-.64,1.37-.05.08-1.25,2.56-1.47,3.01-1.94,3.9-3.99,7.75-6.19,11.51-.92,1.58-1.87,3.15-2.85,4.7-.55.88-1.13,1.74-1.7,2.6-.23.32-1.02,1.47-1.4,1.98-2.32,3.15-4.8,6.18-7.42,9.09-.73.81-1.48,1.6-2.22,2.39-.02.03-.04.05-.07.07-.14.13-.3.28-.49.45-1.6,1.48-3.15,2.99-4.79,4.43-1.63,1.43-3.31,2.82-5.01,4.17-.68.54-1.37,1.07-2.07,1.59.15-.11-1.05.76-1.7,1.25-.63.42-2.04,1.4-1.88,1.29-.73.48-1.46.95-2.19,1.42-2.02,1.28-4.08,2.49-6.17,3.65-15.74,8.72-34.02,13.84-53.08,13.89-20.47.05-40.37-4.97-58.28-14.88-6.03-3.34-13.12,3.94-15.71,8.72-2.45,4.53-5.91,14.53.3,17.97,32.2,17.82,71.88,21.53,106.58,8.96,35.71-12.94,63.45-39.4,80.8-72.92,8.49-16.4,15.07-33.65,22.77-50.41-.02.04.46-.98.8-1.73.35-.73,1.01-2.1.99-2.05.91-1.86,1.85-3.7,2.81-5.53,2.14-4.06,4.41-8.05,6.86-11.93.61-.97,1.24-1.93,1.88-2.89.02-.02.03-.04.04-.06,1.25-1.74,2.5-3.47,3.79-5.18,2.65-3.5,5.41-6.91,8.29-10.23,1.3-1.5,2.62-2.97,3.97-4.43.68-.74,1.37-1.47,2.07-2.2.1-.1.2-.2.33-.32,3.14-3.09,6.35-6.1,9.69-8.97,3.17-2.71,6.44-5.29,9.81-7.74.21-.15.34-.25.43-.32.15-.1.32-.21.52-.34.73-.48,1.45-.97,2.18-1.45,2.01-1.31,4.05-2.56,6.12-3.77,13.26-7.69,26.42-12.09,42.17-14.28,4.38-.61,5.9-.75,10.35-.93,4.08-.16,8.16-.14,12.23.1,7.89.45,15.75,1.67,23.36,3.79.14.04.28.08.42.12-7.46,2.77-14.64,6.69-21.35,11.72-23.75,17.8-36.95,47.44-38.68,76.57-2.78,46.75,25.3,93.56,65.94,115.81,26.1,14.29,56.53,18.45,85.94,14.3,6.54-3.66,9.91-10.75,8.47-17.19-1.5-6.71-7.59-9.8-8.47-10.23Z"/></svg>