<?xml version="1.0" encoding="UTF-8"?><svg id="Layer_1" xmlns="http://www.w3.org/2000/svg" viewBox="0 0 512 512"><path d="M256,173.94c-34.97,0-63.42-28.45-63.42-63.42s28.45-63.42,63.42-63.42,63.42,28.45,63.42,63.42-28.45,63.42-63.42,63.42ZM256,56.86c-29.59,0-53.66,24.07-53.66,53.66s24.07,53.66,53.66,53.66,53.66-24.07,53.66-53.66-24.07-53.66-53.66-53.66Z"/><path d="M36.98,438.56c-1.8,0-3.54-1.01-4.39-2.74-1.18-2.42-.18-5.34,2.24-6.53.26-.13,16.06-7.96,34.9-22.8,17.3-13.63,40.81-36.17,54.52-66.08,7.08-15.45,10.15-32.83,13.4-51.22,4.01-22.72,8.16-46.2,20.32-68.2l.14-.24c13.46-21.38,24.89-35.4,59.85-35.4h57.65c2.69,0,4.88,2.18,4.88,4.88s-2.18,4.88-4.88,4.88h-57.65c-30.57,0-39.53,11.67-51.52,30.72-11.32,20.54-15.32,43.17-19.18,65.05-3.36,19.03-6.53,37.01-14.14,53.59-14.56,31.76-39.33,55.51-57.55,69.83-19.68,15.48-35.78,23.42-36.45,23.75-.69.34-1.42.5-2.14.5Z"/><path d="M475.02,438.56c-.72,0-1.45-.16-2.14-.5-.68-.33-16.77-8.27-36.45-23.75-18.22-14.32-42.99-38.07-57.55-69.83-7.6-16.58-10.78-34.56-14.14-53.59-3.86-21.89-7.86-44.51-19.18-65.05-11.99-19.05-20.95-30.72-51.52-30.72h-57.65c-2.69,0-4.88-2.18-4.88-4.88s2.18-4.88,4.88-4.88h57.65c34.96,0,46.4,14.01,59.85,35.4l.14.24c12.16,21.99,16.31,45.48,20.32,68.2,3.25,18.4,6.32,35.78,13.4,51.22,26.37,57.53,88.79,88.57,89.42,88.88,2.42,1.18,3.42,4.11,2.24,6.53-.85,1.73-2.58,2.74-4.39,2.74Z"/><path d="M111.4,453.19c-23.49,0-32.71-8.4-36.3-15.52-4.61-9.13-1.91-19.61,2.55-25.49,11.35-14.97,48.08-19.63,84.74-23.11,6.88-.66,14.68-1.4,16.25-1.95,1.01-.36,2.21-.74,3.6-1.19,10.12-3.22,28.97-9.2,31.9-25.34,3.65-20.1-1.62-36.23-10.52-60.89-8.96-24.8-13.71-60.97-13.91-62.5-.35-2.67,1.54-5.12,4.21-5.46,2.67-.35,5.12,1.54,5.47,4.21.05.36,4.82,36.65,13.41,60.44,9.49,26.28,14.96,43.84,10.94,65.95-3.98,21.92-27.33,29.33-38.55,32.89-1.3.41-2.42.77-3.27,1.07-2.56.92-7.85,1.45-18.62,2.47-22.13,2.11-68.17,6.49-77.89,19.3-2.15,2.84-4.5,9.48-1.61,15.2,3.4,6.73,13.61,10.33,28.72,10.15,21.7-.27,52.55-5.21,82.39-9.99,43.89-7.03,81.79-13.1,95.52-6.06,2.4,1.23,3.34,4.17,2.11,6.57-1.23,2.4-4.17,3.34-6.57,2.11-10.89-5.58-52.67,1.11-89.53,7.01-30.18,4.83-61.39,9.83-83.81,10.11-.42,0-.84,0-1.25,0Z"/><path d="M400.11,453.19c-.41,0-.83,0-1.25,0-25.69-.32-63.04-11.23-99.17-21.79-18.99-5.55-36.92-10.79-51.52-13.95-18.67-4.04-25.79-3.25-28.46-1.88-2.4,1.23-5.34.28-6.57-2.11-1.23-2.4-.28-5.34,2.12-6.57,12.21-6.26,41.08,1.68,87.17,15.14,33.84,9.89,72.2,21.09,96.55,21.39,15.12.18,25.33-3.42,28.72-10.15,2.89-5.72.54-12.36-1.61-15.2-9.71-12.81-55.76-17.19-77.89-19.3-10.77-1.03-16.06-1.56-18.62-2.47-.84-.3-1.97-.66-3.27-1.07-11.22-3.56-34.56-10.98-38.55-32.89-4.02-22.11,1.45-39.67,10.94-65.95,8.59-23.79,13.36-60.07,13.41-60.44.35-2.67,2.79-4.56,5.47-4.21,2.67.35,4.56,2.79,4.21,5.46-.2,1.53-4.95,37.7-13.91,62.5-8.9,24.66-14.18,40.79-10.52,60.89,2.93,16.14,21.78,22.13,31.9,25.34,1.39.44,2.59.82,3.6,1.19,1.57.55,9.37,1.29,16.25,1.95,36.65,3.49,73.39,8.15,84.74,23.11,4.46,5.88,7.15,16.36,2.55,25.49-3.59,7.12-12.81,15.52-36.3,15.52Z"/></svg>